<svg xmlns="http://www.w3.org/2000/svg" xmlns:xlink="http://www.w3.org/1999/xlink" width="500" zoomAndPan="magnify" viewBox="0 0 375 374.999991" height="500" preserveAspectRatio="xMidYMid meet" version="1.0"><defs><filter x="0%" y="0%" width="100%" height="100%" id="52839b6fcf"><feColorMatrix values="0 0 0 0 1 0 0 0 0 1 0 0 0 0 1 0 0 0 1 0" colorInterpolationFilters="sRGB"/></filter><g/><mask id="fa00ea78c4"><g filter="url(#52839b6fcf)"><rect x="-37.5" width="450" fill="#000000" y="-37.499999" height="449.999989" fillOpacity="0.298"/></g></mask><clipPath id="c89cf320e8"><path d="M 0.867188 0.421875 L 121.355469 0.421875 L 121.355469 17.367188 L 0.867188 17.367188 Z M 0.867188 0.421875 " clipRule="nonzero"/></clipPath><clipPath id="821fc87f7a"><path d="M 61.109375 0.421875 C 27.839844 0.421875 0.867188 4.160156 0.867188 8.769531 C 0.867188 13.382812 27.839844 17.117188 61.109375 17.117188 C 94.382812 17.117188 121.355469 13.382812 121.355469 8.769531 C 121.355469 4.160156 94.382812 0.421875 61.109375 0.421875 " clipRule="nonzero"/></clipPath><clipPath id="1661d115d8"><rect x="0" width="122" y="0" height="18"/></clipPath><clipPath id="6a80a24f91"><path d="M 114.328125 38.308594 L 264.328125 38.308594 L 264.328125 188.308594 L 114.328125 188.308594 Z M 114.328125 38.308594 " clipRule="nonzero"/></clipPath></defs><g mask="url(#fa00ea78c4)"><g transform="matrix(1, 0, 0, 1, 125, 193)"><g clipPath="url(#1661d115d8)"><g clipPath="url(#c89cf320e8)"><g clipPath="url(#821fc87f7a)"><path fill="#d9d9d9" d="M 0.867188 0.421875 L 121.355469 0.421875 L 121.355469 17.367188 L 0.867188 17.367188 Z M 0.867188 0.421875 " fillOpacity="1" fillRule="nonzero"/></g></g></g></g></g><g clipPath="url(#6a80a24f91)"><path fill="#d9d9d9" d="M 211.152344 136.488281 L 167.507812 136.488281 C 165.820312 136.488281 164.242188 137.21875 163.171875 138.488281 C 162.136719 139.714844 161.699219 141.320312 161.964844 142.855469 L 167.753906 180.675781 C 168.515625 185.101562 172.414062 188.308594 177.023438 188.308594 L 201.632812 188.308594 C 206.242188 188.308594 210.140625 185.101562 210.910156 180.644531 L 216.6875 142.890625 C 216.957031 141.320312 216.519531 139.71875 215.488281 138.488281 C 214.417969 137.21875 212.835938 136.488281 211.152344 136.488281 Z M 177.023438 184.652344 C 174.203125 184.652344 171.820312 182.71875 171.363281 180.089844 L 165.574219 142.269531 C 165.457031 141.578125 165.769531 141.082031 165.96875 140.847656 C 166.34375 140.402344 166.902344 140.148438 167.507812 140.148438 L 178.972656 140.148438 L 181.304688 184.652344 Z M 193.6875 184.652344 L 184.96875 184.652344 L 182.714844 140.148438 L 195.941406 140.148438 Z M 207.300781 180.054688 C 206.839844 182.71875 204.457031 184.652344 201.632812 184.652344 L 197.355469 184.652344 L 199.6875 140.148438 L 211.152344 140.148438 C 211.753906 140.148438 212.316406 140.402344 212.691406 140.847656 C 212.886719 141.082031 213.203125 141.578125 213.078125 142.300781 Z M 216.769531 131.601562 C 216.769531 132.613281 215.949219 133.433594 214.9375 133.433594 L 211.28125 133.433594 C 210.269531 133.433594 209.453125 132.613281 209.453125 131.601562 C 209.453125 128.660156 206.785156 126.375 204.261719 127.753906 C 203.570312 128.128906 202.722656 128.027344 202.148438 127.496094 C 201.570312 126.964844 201.394531 126.125 201.710938 125.40625 C 201.992188 124.777344 202.132812 124.125 202.132812 123.472656 C 202.132812 120.503906 199.425781 118.207031 196.882812 119.660156 C 196.429688 119.925781 195.878906 119.976562 195.378906 119.804688 C 194.882812 119.636719 194.480469 119.257812 194.28125 118.769531 C 193.375 116.566406 191.433594 115.140625 189.328125 115.140625 C 187.230469 115.140625 185.285156 116.566406 184.378906 118.773438 C 184.175781 119.257812 183.777344 119.632812 183.277344 119.804688 C 182.78125 119.976562 182.230469 119.925781 181.777344 119.660156 C 179.230469 118.210938 176.527344 120.503906 176.523438 123.472656 C 176.523438 124.125 176.667969 124.777344 176.945312 125.40625 C 177.265625 126.125 177.089844 126.964844 176.511719 127.496094 C 175.929688 128.027344 175.082031 128.128906 174.394531 127.753906 C 171.894531 126.382812 169.207031 128.65625 169.207031 131.601562 C 169.207031 132.613281 168.390625 133.433594 167.378906 133.433594 L 163.71875 133.433594 C 162.707031 133.433594 161.890625 132.613281 161.890625 131.601562 C 161.890625 130.59375 162.707031 129.773438 163.71875 129.773438 L 165.746094 129.773438 C 166.511719 126.28125 169.414062 123.675781 172.867188 123.675781 C 172.867188 123.609375 172.867188 123.542969 172.867188 123.472656 C 172.867188 119.101562 176.148438 115.546875 180.183594 115.546875 C 180.738281 115.546875 181.292969 115.617188 181.832031 115.757812 C 183.523438 113.113281 186.3125 111.480469 189.328125 111.480469 C 192.34375 111.480469 195.136719 113.113281 196.824219 115.757812 C 197.367188 115.617188 197.917969 115.546875 198.476562 115.546875 C 202.511719 115.546875 205.792969 119.101562 205.792969 123.472656 C 205.792969 123.542969 205.792969 123.609375 205.789062 123.675781 L 205.792969 123.675781 C 209.246094 123.675781 212.148438 126.28125 212.914062 129.773438 L 214.9375 129.773438 C 215.949219 129.773438 216.769531 130.59375 216.769531 131.601562 Z M 180.183594 131.601562 C 180.183594 130.59375 181 129.773438 182.011719 129.773438 L 185.671875 129.773438 C 186.683594 129.773438 187.5 130.59375 187.5 131.601562 C 187.5 132.613281 186.683594 133.433594 185.671875 133.433594 L 182.011719 133.433594 C 181 133.433594 180.183594 132.613281 180.183594 131.601562 Z M 189.328125 126.117188 C 188.316406 126.117188 187.5 125.296875 187.5 124.285156 C 187.5 123.273438 188.316406 122.457031 189.328125 122.457031 L 192.988281 122.457031 C 194 122.457031 194.816406 123.273438 194.816406 124.285156 C 194.816406 125.296875 194 126.117188 192.988281 126.117188 Z M 180.15625 100.507812 C 180.972656 100.507812 181.789062 100.285156 182.527344 99.84375 L 208.195312 84.476562 C 209.636719 83.617188 210.496094 82.085938 210.496094 80.382812 C 210.496094 78.683594 209.636719 77.152344 208.195312 76.289062 L 182.527344 60.921875 C 181.078125 60.058594 179.339844 60.035156 177.878906 60.867188 C 176.375 61.71875 175.480469 63.269531 175.480469 65.019531 L 175.480469 95.75 C 175.480469 97.496094 176.375 99.050781 177.878906 99.902344 C 178.59375 100.304688 179.375 100.511719 180.15625 100.511719 Z M 179.136719 65.015625 C 179.136719 64.421875 179.519531 64.144531 179.683594 64.050781 C 179.789062 63.988281 179.953125 63.921875 180.15625 63.921875 C 180.304688 63.921875 180.472656 63.957031 180.648438 64.0625 L 206.316406 79.429688 C 206.789062 79.710938 206.839844 80.191406 206.839844 80.382812 C 206.839844 80.578125 206.789062 81.054688 206.316406 81.335938 L 180.648438 96.703125 C 180.230469 96.953125 179.863281 96.820312 179.683594 96.714844 C 179.519531 96.625 179.136719 96.34375 179.136719 95.75 Z M 264.328125 54.773438 L 264.328125 127.945312 C 264.328125 137.023438 256.945312 144.40625 247.867188 144.40625 L 222.007812 144.40625 L 222.097656 143.820312 C 222.277344 142.789062 222.25 141.761719 222.125 140.75 L 247.867188 140.75 C 254.925781 140.75 260.671875 135.003906 260.671875 127.945312 L 260.671875 122.457031 L 215.113281 122.457031 C 213.855469 121.050781 212.332031 119.910156 210.605469 119.171875 C 210.5625 119.042969 210.5 118.925781 210.453125 118.796875 L 260.671875 118.796875 L 260.671875 54.773438 C 260.671875 47.714844 254.925781 41.96875 247.867188 41.96875 L 130.792969 41.96875 C 123.734375 41.96875 117.988281 47.714844 117.988281 54.773438 L 117.988281 118.796875 L 168.203125 118.796875 C 168.160156 118.925781 168.09375 119.042969 168.054688 119.171875 C 166.324219 119.910156 164.804688 121.050781 163.546875 122.457031 L 117.988281 122.457031 L 117.988281 127.945312 C 117.988281 135.003906 123.734375 140.75 130.792969 140.75 L 156.523438 140.75 C 156.398438 141.726562 156.371094 142.714844 156.539062 143.6875 L 156.648438 144.40625 L 130.792969 144.40625 C 121.714844 144.40625 114.328125 137.023438 114.328125 127.945312 L 114.328125 54.773438 C 114.328125 45.695312 121.714844 38.308594 130.792969 38.308594 L 247.867188 38.308594 C 256.945312 38.308594 264.328125 45.695312 264.328125 54.773438 Z M 264.328125 54.773438 " fillOpacity="1" fillRule="nonzero"/></g><g fill="#d9d9d9" fillOpacity="1"><g transform="translate(110.554685, 248.09666)"><g><path d="M 16.566406 0 C 19.9375 -0.0898438 22.589844 -2.769531 22.589844 -6.023438 C 22.589844 -7.832031 21.898438 -9.335938 20.542969 -10.542969 C 21.898438 -11.746094 22.589844 -13.253906 22.589844 -15.058594 C 22.589844 -18.402344 19.730469 -21.085938 16.566406 -21.085938 L 1.507812 -21.085938 L 1.507812 0 Z M 16.566406 -9.035156 C 18.222656 -9.035156 19.578125 -7.679688 19.578125 -6.023438 C 19.578125 -4.367188 18.222656 -3.011719 16.566406 -3.011719 L 4.519531 -3.011719 L 4.519531 -9.035156 Z M 4.519531 -18.070312 L 16.566406 -18.070312 C 18.222656 -18.070312 19.578125 -16.714844 19.578125 -15.058594 C 19.578125 -13.402344 18.222656 -12.046875 16.566406 -12.046875 L 4.519531 -12.046875 Z M 4.519531 -18.070312 "/></g></g></g><g fill="#d9d9d9" fillOpacity="1"><g transform="translate(134.347328, 248.09666)"><g><path d="M 19.578125 -6.023438 C 19.578125 -4.367188 18.222656 -3.011719 16.566406 -3.011719 L 7.53125 -3.011719 C 5.875 -3.011719 4.519531 -4.367188 4.519531 -6.023438 L 4.519531 -21.085938 L 1.507812 -21.085938 L 1.507812 -6.023438 C 1.507812 -2.621094 4.308594 0 7.53125 0 L 16.566406 0 C 19.9375 0 22.589844 -2.832031 22.589844 -6.023438 L 22.589844 -21.085938 L 19.578125 -21.085938 Z M 19.578125 -6.023438 "/></g></g></g><g fill="#d9d9d9" fillOpacity="1"><g transform="translate(158.441145, 248.09666)"><g><path d="M 0.902344 -21.085938 L 0.902344 -18.070312 L 17.621094 -18.070312 L 0.902344 -3.011719 L 0.902344 0 L 21.988281 0 L 21.988281 -3.011719 L 5.390625 -3.011719 L 21.988281 -18.070312 L 21.988281 -21.085938 Z M 0.902344 -21.085938 "/></g></g></g><g fill="#d9d9d9" fillOpacity="1"><g transform="translate(181.330277, 248.09666)"><g><path d="M 0.902344 -21.085938 L 0.902344 -18.070312 L 17.621094 -18.070312 L 0.902344 -3.011719 L 0.902344 0 L 21.988281 0 L 21.988281 -3.011719 L 5.390625 -3.011719 L 21.988281 -18.070312 L 21.988281 -21.085938 Z M 0.902344 -21.085938 "/></g></g></g><g fill="#d9d9d9" fillOpacity="1"><g transform="translate(204.21941, 248.09666)"><g><path d="M 19.578125 -3.011719 C 17.921875 -3.011719 16.566406 -4.367188 16.566406 -6.023438 L 16.566406 -21.085938 L 13.554688 -21.085938 L 13.554688 -6.023438 C 13.554688 -4.367188 12.199219 -3.011719 10.542969 -3.011719 L 7.53125 -3.011719 C 5.875 -3.011719 4.519531 -4.367188 4.519531 -6.023438 L 4.519531 -21.085938 L 1.507812 -21.085938 L 1.507812 -6.023438 C 1.507812 -2.621094 4.308594 0 7.53125 0 L 10.542969 0 C 12.347656 0 13.855469 -0.691406 15.058594 -2.046875 C 16.265625 -0.691406 17.769531 0 19.578125 0 L 22.589844 0 C 25.964844 0 28.613281 -2.832031 28.613281 -6.023438 L 28.613281 -21.085938 L 25.601562 -21.085938 L 25.601562 -6.023438 C 25.601562 -4.367188 24.246094 -3.011719 22.589844 -3.011719 Z M 19.578125 -3.011719 "/></g></g></g><g fill="#d9d9d9" fillOpacity="1"><g transform="translate(234.336687, 248.09666)"><g><path d="M 1.507812 0 L 4.519531 0 L 4.519531 -21.085938 L 1.507812 -21.085938 Z M 1.507812 0 "/></g></g></g><g fill="#d9d9d9" fillOpacity="1"><g transform="translate(240.360147, 248.09666)"><g><path d="M 22.589844 -21.085938 L 19.578125 -21.085938 L 19.578125 -5.121094 L 4.519531 -21.085938 L 1.507812 -21.085938 L 1.507812 0 L 4.519531 0 L 4.519531 -16.203125 L 19.578125 0 L 22.589844 0 Z M 22.589844 -21.085938 "/></g></g></g><g fill="#d9d9d9" fillOpacity="1"><g transform="translate(56.695313, 271.333957)"><g><path d="M 7.53125 -5.59375 L 5.046875 0.046875 L 4.171875 0.046875 L 0.71875 -7.484375 L -0.0625 -7.765625 L -0.015625 -8.59375 L 4.203125 -8.59375 L 4.25 -7.765625 L 3.53125 -7.484375 L 5.796875 -2.25 L 4.84375 -2.25 L 6.75 -6.96875 Z M 9.703125 0.046875 L 6.171875 -7.484375 L 5.453125 -7.765625 L 5.5 -8.59375 L 9.8125 -8.59375 L 9.859375 -7.765625 L 8.90625 -7.484375 L 11.21875 -2.25 L 10.4375 -2.25 L 12.46875 -7.484375 L 11.484375 -7.765625 L 11.53125 -8.59375 L 14.734375 -8.59375 L 14.78125 -7.765625 L 14 -7.484375 L 10.578125 0.046875 Z M 9.703125 0.046875 "/></g></g></g><g fill="#d9d9d9" fillOpacity="1"><g transform="translate(72.946289, 271.333957)"><g><path d="M 5.734375 0 L 5.6875 -0.828125 L 6.59375 -1.109375 C 6.613281 -1.171875 6.628906 -1.320312 6.640625 -1.5625 C 6.660156 -1.8125 6.671875 -2.101562 6.671875 -2.4375 C 6.679688 -2.769531 6.6875 -3.097656 6.6875 -3.421875 L 6.6875 -5.1875 C 6.6875 -5.519531 6.679688 -5.851562 6.671875 -6.1875 C 6.671875 -6.53125 6.660156 -6.820312 6.640625 -7.0625 C 6.628906 -7.3125 6.613281 -7.460938 6.59375 -7.515625 L 5.6875 -7.765625 L 5.734375 -8.59375 L 10.171875 -8.59375 L 10.203125 -7.765625 L 9.265625 -7.515625 C 9.253906 -7.460938 9.238281 -7.300781 9.21875 -7.03125 C 9.195312 -6.757812 9.175781 -6.445312 9.15625 -6.09375 C 9.144531 -5.75 9.140625 -5.445312 9.140625 -5.1875 L 9.140625 -3.421875 C 9.140625 -3.171875 9.144531 -2.875 9.15625 -2.53125 C 9.175781 -2.1875 9.195312 -1.878906 9.21875 -1.609375 C 9.238281 -1.335938 9.253906 -1.171875 9.265625 -1.109375 L 10.203125 -0.828125 L 10.171875 0 Z M 0.484375 0 L 0.4375 -0.828125 L 1.390625 -1.109375 C 1.410156 -1.148438 1.429688 -1.28125 1.453125 -1.5 C 1.472656 -1.726562 1.488281 -2.015625 1.5 -2.359375 C 1.507812 -2.703125 1.515625 -3.054688 1.515625 -3.421875 L 1.515625 -5.1875 C 1.515625 -5.5625 1.507812 -5.921875 1.5 -6.265625 C 1.488281 -6.609375 1.472656 -6.894531 1.453125 -7.125 C 1.429688 -7.351562 1.410156 -7.484375 1.390625 -7.515625 L 0.4375 -7.765625 L 0.484375 -8.59375 L 4.921875 -8.59375 L 4.96875 -7.765625 L 4.0625 -7.515625 C 4.039062 -7.460938 4.019531 -7.3125 4 -7.0625 C 3.988281 -6.820312 3.976562 -6.53125 3.96875 -6.1875 C 3.957031 -5.851562 3.953125 -5.519531 3.953125 -5.1875 L 3.953125 -3.421875 C 3.953125 -3.097656 3.957031 -2.769531 3.96875 -2.4375 C 3.976562 -2.101562 3.988281 -1.8125 4 -1.5625 C 4.019531 -1.320312 4.039062 -1.171875 4.0625 -1.109375 L 4.96875 -0.828125 L 4.921875 0 Z M 3.5 -3.734375 L 3.5 -5.015625 C 3.769531 -4.984375 4.035156 -4.960938 4.296875 -4.953125 C 4.566406 -4.941406 4.90625 -4.9375 5.3125 -4.9375 C 5.726562 -4.9375 6.066406 -4.941406 6.328125 -4.953125 C 6.585938 -4.960938 6.859375 -4.984375 7.140625 -5.015625 L 7.140625 -3.734375 C 6.953125 -3.734375 6.710938 -3.742188 6.421875 -3.765625 C 6.128906 -3.785156 5.757812 -3.796875 5.3125 -3.796875 C 4.875 -3.796875 4.515625 -3.785156 4.234375 -3.765625 C 3.953125 -3.742188 3.707031 -3.734375 3.5 -3.734375 Z M 3.5 -3.734375 "/></g></g></g><g fill="#d9d9d9" fillOpacity="1"><g transform="translate(85.110351, 271.333957)"><g><path d="M 0 0 L -0.046875 -0.828125 L 0.734375 -1.109375 L 3.6875 -8.0625 L 5.140625 -8.859375 L 8.625 -1.109375 L 9.40625 -0.828125 L 9.359375 0 L 4.828125 0 L 4.765625 -0.828125 L 5.734375 -1.109375 L 5.015625 -2.796875 L 4.84375 -3.34375 L 3.453125 -6.46875 L 3.953125 -6.15625 L 2.9375 -3.40625 L 2.796875 -2.96875 L 2.15625 -1.109375 L 3.125 -0.828125 L 3.078125 0 Z M 2.375 -2.34375 L 2.375 -3.484375 C 2.582031 -3.472656 2.789062 -3.457031 3 -3.4375 C 3.207031 -3.414062 3.5 -3.40625 3.875 -3.40625 C 4.226562 -3.40625 4.515625 -3.414062 4.734375 -3.4375 C 4.960938 -3.457031 5.175781 -3.472656 5.375 -3.484375 L 5.375 -2.359375 C 5.300781 -2.359375 5.144531 -2.363281 4.90625 -2.375 C 4.675781 -2.382812 4.332031 -2.390625 3.875 -2.390625 C 3.394531 -2.390625 3.039062 -2.382812 2.8125 -2.375 C 2.59375 -2.363281 2.445312 -2.351562 2.375 -2.34375 Z M 2.375 -2.34375 "/></g></g></g><g fill="#d9d9d9" fillOpacity="1"><g transform="translate(95.882811, 271.333957)"><g><path d="M 8.921875 -8.6875 L 9.265625 -5.9375 L 8.203125 -5.859375 L 7.625 -7.59375 C 7.539062 -7.613281 7.4375 -7.625 7.3125 -7.625 C 7.195312 -7.625 7.054688 -7.625 6.890625 -7.625 L 6.4375 -7.625 C 6.351562 -7.625 6.269531 -7.625 6.1875 -7.625 C 6.113281 -7.625 6.066406 -7.617188 6.046875 -7.609375 C 6.046875 -7.546875 6.039062 -7.359375 6.03125 -7.046875 C 6.019531 -6.734375 6.007812 -6.351562 6 -5.90625 C 6 -5.46875 6 -5.007812 6 -4.53125 L 6 -3.546875 C 6 -3.046875 6.003906 -2.582031 6.015625 -2.15625 C 6.035156 -1.726562 6.050781 -1.378906 6.0625 -1.109375 L 7.375 -0.859375 L 7.328125 0 L 2.234375 0 L 2.1875 -0.859375 L 3.484375 -1.109375 C 3.503906 -1.378906 3.519531 -1.726562 3.53125 -2.15625 C 3.539062 -2.582031 3.546875 -3.046875 3.546875 -3.546875 L 3.546875 -4.53125 C 3.546875 -5.007812 3.539062 -5.46875 3.53125 -5.90625 C 3.53125 -6.351562 3.523438 -6.734375 3.515625 -7.046875 C 3.515625 -7.359375 3.507812 -7.546875 3.5 -7.609375 C 3.476562 -7.617188 3.425781 -7.625 3.34375 -7.625 C 3.269531 -7.625 3.195312 -7.625 3.125 -7.625 L 2.65625 -7.625 C 2.5 -7.625 2.347656 -7.625 2.203125 -7.625 C 2.054688 -7.625 1.9375 -7.613281 1.84375 -7.59375 L 1.328125 -5.828125 L 0.265625 -5.921875 L 0.5625 -8.6875 C 0.65625 -8.6875 0.804688 -8.679688 1.015625 -8.671875 C 1.234375 -8.660156 1.46875 -8.648438 1.71875 -8.640625 C 1.976562 -8.628906 2.222656 -8.617188 2.453125 -8.609375 C 2.691406 -8.597656 2.882812 -8.59375 3.03125 -8.59375 L 6.453125 -8.59375 C 6.609375 -8.59375 6.800781 -8.597656 7.03125 -8.609375 C 7.269531 -8.617188 7.515625 -8.628906 7.765625 -8.640625 C 8.015625 -8.648438 8.242188 -8.660156 8.453125 -8.671875 C 8.671875 -8.679688 8.828125 -8.6875 8.921875 -8.6875 Z M 8.921875 -8.6875 "/></g></g></g><g fill="#d9d9d9" fillOpacity="1"><g transform="translate(106.94824, 271.333957)"><g/></g></g><g fill="#d9d9d9" fillOpacity="1"><g transform="translate(111.377927, 271.333957)"><g><path d="M 7.53125 -5.59375 L 5.046875 0.046875 L 4.171875 0.046875 L 0.71875 -7.484375 L -0.0625 -7.765625 L -0.015625 -8.59375 L 4.203125 -8.59375 L 4.25 -7.765625 L 3.53125 -7.484375 L 5.796875 -2.25 L 4.84375 -2.25 L 6.75 -6.96875 Z M 9.703125 0.046875 L 6.171875 -7.484375 L 5.453125 -7.765625 L 5.5 -8.59375 L 9.8125 -8.59375 L 9.859375 -7.765625 L 8.90625 -7.484375 L 11.21875 -2.25 L 10.4375 -2.25 L 12.46875 -7.484375 L 11.484375 -7.765625 L 11.53125 -8.59375 L 14.734375 -8.59375 L 14.78125 -7.765625 L 14 -7.484375 L 10.578125 0.046875 Z M 9.703125 0.046875 "/></g></g></g><g fill="#d9d9d9" fillOpacity="1"><g transform="translate(127.628903, 271.333957)"><g><path d="M 0.484375 0 L 0.4375 -0.828125 L 1.390625 -1.109375 C 1.410156 -1.148438 1.429688 -1.28125 1.453125 -1.5 C 1.472656 -1.726562 1.488281 -2.015625 1.5 -2.359375 C 1.507812 -2.703125 1.515625 -3.054688 1.515625 -3.421875 L 1.515625 -5.1875 C 1.515625 -5.5625 1.507812 -5.921875 1.5 -6.265625 C 1.488281 -6.609375 1.472656 -6.894531 1.453125 -7.125 C 1.429688 -7.351562 1.410156 -7.484375 1.390625 -7.515625 L 0.4375 -7.765625 L 0.484375 -8.59375 L 4.96875 -8.59375 L 5.015625 -7.765625 L 4.0625 -7.515625 C 4.039062 -7.460938 4.019531 -7.3125 4 -7.0625 C 3.988281 -6.820312 3.976562 -6.53125 3.96875 -6.1875 C 3.957031 -5.851562 3.953125 -5.519531 3.953125 -5.1875 L 3.953125 -3.421875 C 3.953125 -3.097656 3.957031 -2.769531 3.96875 -2.4375 C 3.976562 -2.101562 3.988281 -1.8125 4 -1.5625 C 4.019531 -1.320312 4.039062 -1.171875 4.0625 -1.109375 L 5.015625 -0.828125 L 4.96875 0 Z M 0.484375 0 "/></g></g></g><g fill="#d9d9d9" fillOpacity="1"><g transform="translate(134.607418, 271.333957)"><g><path d="M 7.625 0.125 C 7.3125 0.09375 6.96875 0.0664062 6.59375 0.046875 C 6.21875 0.0234375 5.863281 0.0078125 5.53125 0 C 5.207031 0 4.957031 0 4.78125 0 L 0.5 0 L 0.453125 -0.828125 L 1.40625 -1.109375 C 1.425781 -1.160156 1.441406 -1.3125 1.453125 -1.5625 C 1.472656 -1.8125 1.488281 -2.101562 1.5 -2.4375 C 1.507812 -2.769531 1.515625 -3.097656 1.515625 -3.421875 L 1.515625 -5.1875 C 1.515625 -5.53125 1.507812 -5.867188 1.5 -6.203125 C 1.488281 -6.535156 1.472656 -6.820312 1.453125 -7.0625 C 1.441406 -7.300781 1.425781 -7.445312 1.40625 -7.5 L 0.453125 -7.765625 L 0.5 -8.59375 L 5.25 -8.59375 L 5.28125 -7.734375 L 4.078125 -7.46875 C 4.066406 -7.4375 4.050781 -7.304688 4.03125 -7.078125 C 4.007812 -6.847656 3.992188 -6.566406 3.984375 -6.234375 C 3.972656 -5.898438 3.96875 -5.550781 3.96875 -5.1875 L 3.96875 -3.421875 C 3.96875 -2.796875 3.972656 -2.320312 3.984375 -2 C 3.992188 -1.6875 4.015625 -1.453125 4.046875 -1.296875 C 4.234375 -1.273438 4.421875 -1.257812 4.609375 -1.25 C 4.804688 -1.238281 5.039062 -1.234375 5.3125 -1.234375 L 5.609375 -1.234375 C 5.773438 -1.234375 5.945312 -1.242188 6.125 -1.265625 C 6.3125 -1.285156 6.4375 -1.304688 6.5 -1.328125 L 7.359375 -3.03125 L 8.40625 -2.765625 Z M 7.625 0.125 "/></g></g></g><g fill="#d9d9d9" fillOpacity="1"><g transform="translate(144.61816, 271.333957)"><g><path d="M 7.625 0.125 C 7.3125 0.09375 6.96875 0.0664062 6.59375 0.046875 C 6.21875 0.0234375 5.863281 0.0078125 5.53125 0 C 5.207031 0 4.957031 0 4.78125 0 L 0.5 0 L 0.453125 -0.828125 L 1.40625 -1.109375 C 1.425781 -1.160156 1.441406 -1.3125 1.453125 -1.5625 C 1.472656 -1.8125 1.488281 -2.101562 1.5 -2.4375 C 1.507812 -2.769531 1.515625 -3.097656 1.515625 -3.421875 L 1.515625 -5.1875 C 1.515625 -5.53125 1.507812 -5.867188 1.5 -6.203125 C 1.488281 -6.535156 1.472656 -6.820312 1.453125 -7.0625 C 1.441406 -7.300781 1.425781 -7.445312 1.40625 -7.5 L 0.453125 -7.765625 L 0.5 -8.59375 L 5.25 -8.59375 L 5.28125 -7.734375 L 4.078125 -7.46875 C 4.066406 -7.4375 4.050781 -7.304688 4.03125 -7.078125 C 4.007812 -6.847656 3.992188 -6.566406 3.984375 -6.234375 C 3.972656 -5.898438 3.96875 -5.550781 3.96875 -5.1875 L 3.96875 -3.421875 C 3.96875 -2.796875 3.972656 -2.320312 3.984375 -2 C 3.992188 -1.6875 4.015625 -1.453125 4.046875 -1.296875 C 4.234375 -1.273438 4.421875 -1.257812 4.609375 -1.25 C 4.804688 -1.238281 5.039062 -1.234375 5.3125 -1.234375 L 5.609375 -1.234375 C 5.773438 -1.234375 5.945312 -1.242188 6.125 -1.265625 C 6.3125 -1.285156 6.4375 -1.304688 6.5 -1.328125 L 7.359375 -3.03125 L 8.40625 -2.765625 Z M 7.625 0.125 "/></g></g></g><g fill="#d9d9d9" fillOpacity="1"><g transform="translate(154.628901, 271.333957)"><g/></g></g><g fill="#d9d9d9" fillOpacity="1"><g transform="translate(159.058588, 271.333957)"><g><path d="M 8.125 -7.484375 L 4.9375 -2.34375 L 5.75 -4.109375 L 5.75 -2.609375 C 5.75 -2.546875 5.75 -2.441406 5.75 -2.296875 C 5.75 -2.148438 5.753906 -1.988281 5.765625 -1.8125 C 5.773438 -1.644531 5.785156 -1.492188 5.796875 -1.359375 C 5.804688 -1.222656 5.820312 -1.140625 5.84375 -1.109375 L 6.875 -0.84375 L 6.828125 0 L 2.28125 0 L 2.234375 -0.84375 L 3.265625 -1.109375 C 3.285156 -1.140625 3.296875 -1.222656 3.296875 -1.359375 C 3.304688 -1.492188 3.316406 -1.644531 3.328125 -1.8125 C 3.335938 -1.988281 3.34375 -2.148438 3.34375 -2.296875 C 3.34375 -2.441406 3.34375 -2.546875 3.34375 -2.609375 L 3.34375 -4.109375 L 3.921875 -2.34375 L 0.984375 -7.484375 L 0.234375 -7.765625 L 0.28125 -8.59375 L 4.6875 -8.59375 L 4.734375 -7.765625 L 3.78125 -7.484375 L 5.46875 -4.46875 L 5.046875 -4.46875 L 6.734375 -7.484375 L 5.71875 -7.765625 L 5.75 -8.59375 L 8.828125 -8.59375 L 8.875 -7.765625 Z M 8.125 -7.484375 "/></g></g></g><g fill="#d9d9d9" fillOpacity="1"><g transform="translate(169.669916, 271.333957)"><g><path d="M 5.421875 0.125 C 4.492188 0.125 3.664062 -0.0546875 2.9375 -0.421875 C 2.207031 -0.796875 1.632812 -1.304688 1.21875 -1.953125 C 0.800781 -2.597656 0.59375 -3.328125 0.59375 -4.140625 C 0.59375 -5.035156 0.796875 -5.828125 1.203125 -6.515625 C 1.617188 -7.203125 2.191406 -7.742188 2.921875 -8.140625 C 3.648438 -8.535156 4.476562 -8.734375 5.40625 -8.734375 C 6.3125 -8.734375 7.109375 -8.550781 7.796875 -8.1875 C 8.492188 -7.820312 9.035156 -7.316406 9.421875 -6.671875 C 9.816406 -6.035156 10.015625 -5.296875 10.015625 -4.453125 C 10.015625 -3.628906 9.859375 -2.925781 9.546875 -2.34375 C 9.242188 -1.769531 8.851562 -1.296875 8.375 -0.921875 C 7.894531 -0.554688 7.390625 -0.289062 6.859375 -0.125 C 6.335938 0.0390625 5.859375 0.125 5.421875 0.125 Z M 5.515625 -1.140625 C 5.910156 -1.140625 6.234375 -1.25 6.484375 -1.46875 C 6.734375 -1.6875 6.914062 -2.015625 7.03125 -2.453125 C 7.144531 -2.890625 7.203125 -3.425781 7.203125 -4.0625 C 7.203125 -4.789062 7.117188 -5.414062 6.953125 -5.9375 C 6.796875 -6.46875 6.570312 -6.878906 6.28125 -7.171875 C 5.988281 -7.460938 5.640625 -7.609375 5.234375 -7.609375 C 4.671875 -7.609375 4.226562 -7.347656 3.90625 -6.828125 C 3.582031 -6.316406 3.421875 -5.597656 3.421875 -4.671875 C 3.421875 -3.984375 3.507812 -3.367188 3.6875 -2.828125 C 3.863281 -2.296875 4.109375 -1.878906 4.421875 -1.578125 C 4.734375 -1.285156 5.097656 -1.140625 5.515625 -1.140625 Z M 5.515625 -1.140625 "/></g></g></g><g fill="#d9d9d9" fillOpacity="1"><g transform="translate(181.804681, 271.333957)"><g><path d="M 0.46875 -8.59375 L 4.9375 -8.59375 L 4.984375 -7.765625 L 4.03125 -7.5 C 4.019531 -7.363281 4.003906 -7.164062 3.984375 -6.90625 C 3.972656 -6.65625 3.960938 -6.378906 3.953125 -6.078125 C 3.941406 -5.773438 3.9375 -5.476562 3.9375 -5.1875 L 3.9375 -4.125 C 3.9375 -3.582031 4.003906 -3.113281 4.140625 -2.71875 C 4.273438 -2.332031 4.488281 -2.035156 4.78125 -1.828125 C 5.070312 -1.617188 5.445312 -1.515625 5.90625 -1.515625 C 6.375 -1.515625 6.75 -1.613281 7.03125 -1.8125 C 7.3125 -2.007812 7.519531 -2.300781 7.65625 -2.6875 C 7.789062 -3.070312 7.859375 -3.539062 7.859375 -4.09375 L 7.859375 -4.921875 C 7.859375 -5.265625 7.851562 -5.628906 7.84375 -6.015625 C 7.832031 -6.398438 7.816406 -6.734375 7.796875 -7.015625 C 7.785156 -7.304688 7.769531 -7.46875 7.75 -7.5 L 6.71875 -7.765625 L 6.765625 -8.59375 L 10.28125 -8.59375 L 10.328125 -7.765625 L 9.375 -7.5 C 9.351562 -7.46875 9.332031 -7.304688 9.3125 -7.015625 C 9.289062 -6.734375 9.273438 -6.398438 9.265625 -6.015625 C 9.265625 -5.628906 9.265625 -5.265625 9.265625 -4.921875 L 9.265625 -3.734375 C 9.265625 -2.992188 9.117188 -2.328125 8.828125 -1.734375 C 8.535156 -1.148438 8.113281 -0.691406 7.5625 -0.359375 C 7.007812 -0.0351562 6.335938 0.125 5.546875 0.125 C 4.234375 0.125 3.226562 -0.21875 2.53125 -0.90625 C 1.832031 -1.59375 1.484375 -2.570312 1.484375 -3.84375 L 1.484375 -5.1875 C 1.484375 -5.519531 1.476562 -5.851562 1.46875 -6.1875 C 1.457031 -6.53125 1.441406 -6.820312 1.421875 -7.0625 C 1.410156 -7.3125 1.394531 -7.457031 1.375 -7.5 L 0.421875 -7.765625 Z M 0.46875 -8.59375 "/></g></g></g><g fill="#d9d9d9" fillOpacity="1"><g transform="translate(194.041985, 271.333957)"><g/></g></g><g fill="#d9d9d9" fillOpacity="1"><g transform="translate(198.471672, 271.333957)"><g><path d="M 7.53125 -5.59375 L 5.046875 0.046875 L 4.171875 0.046875 L 0.71875 -7.484375 L -0.0625 -7.765625 L -0.015625 -8.59375 L 4.203125 -8.59375 L 4.25 -7.765625 L 3.53125 -7.484375 L 5.796875 -2.25 L 4.84375 -2.25 L 6.75 -6.96875 Z M 9.703125 0.046875 L 6.171875 -7.484375 L 5.453125 -7.765625 L 5.5 -8.59375 L 9.8125 -8.59375 L 9.859375 -7.765625 L 8.90625 -7.484375 L 11.21875 -2.25 L 10.4375 -2.25 L 12.46875 -7.484375 L 11.484375 -7.765625 L 11.53125 -8.59375 L 14.734375 -8.59375 L 14.78125 -7.765625 L 14 -7.484375 L 10.578125 0.046875 Z M 9.703125 0.046875 "/></g></g></g><g fill="#d9d9d9" fillOpacity="1"><g transform="translate(214.722647, 271.333957)"><g><path d="M 0 0 L -0.046875 -0.828125 L 0.734375 -1.109375 L 3.6875 -8.0625 L 5.140625 -8.859375 L 8.625 -1.109375 L 9.40625 -0.828125 L 9.359375 0 L 4.828125 0 L 4.765625 -0.828125 L 5.734375 -1.109375 L 5.015625 -2.796875 L 4.84375 -3.34375 L 3.453125 -6.46875 L 3.953125 -6.15625 L 2.9375 -3.40625 L 2.796875 -2.96875 L 2.15625 -1.109375 L 3.125 -0.828125 L 3.078125 0 Z M 2.375 -2.34375 L 2.375 -3.484375 C 2.582031 -3.472656 2.789062 -3.457031 3 -3.4375 C 3.207031 -3.414062 3.5 -3.40625 3.875 -3.40625 C 4.226562 -3.40625 4.515625 -3.414062 4.734375 -3.4375 C 4.960938 -3.457031 5.175781 -3.472656 5.375 -3.484375 L 5.375 -2.359375 C 5.300781 -2.359375 5.144531 -2.363281 4.90625 -2.375 C 4.675781 -2.382812 4.332031 -2.390625 3.875 -2.390625 C 3.394531 -2.390625 3.039062 -2.382812 2.8125 -2.375 C 2.59375 -2.363281 2.445312 -2.351562 2.375 -2.34375 Z M 2.375 -2.34375 "/></g></g></g><g fill="#d9d9d9" fillOpacity="1"><g transform="translate(225.495108, 271.333957)"><g><path d="M 8.921875 -8.6875 L 9.265625 -5.9375 L 8.203125 -5.859375 L 7.625 -7.59375 C 7.539062 -7.613281 7.4375 -7.625 7.3125 -7.625 C 7.195312 -7.625 7.054688 -7.625 6.890625 -7.625 L 6.4375 -7.625 C 6.351562 -7.625 6.269531 -7.625 6.1875 -7.625 C 6.113281 -7.625 6.066406 -7.617188 6.046875 -7.609375 C 6.046875 -7.546875 6.039062 -7.359375 6.03125 -7.046875 C 6.019531 -6.734375 6.007812 -6.351562 6 -5.90625 C 6 -5.46875 6 -5.007812 6 -4.53125 L 6 -3.546875 C 6 -3.046875 6.003906 -2.582031 6.015625 -2.15625 C 6.035156 -1.726562 6.050781 -1.378906 6.0625 -1.109375 L 7.375 -0.859375 L 7.328125 0 L 2.234375 0 L 2.1875 -0.859375 L 3.484375 -1.109375 C 3.503906 -1.378906 3.519531 -1.726562 3.53125 -2.15625 C 3.539062 -2.582031 3.546875 -3.046875 3.546875 -3.546875 L 3.546875 -4.53125 C 3.546875 -5.007812 3.539062 -5.46875 3.53125 -5.90625 C 3.53125 -6.351562 3.523438 -6.734375 3.515625 -7.046875 C 3.515625 -7.359375 3.507812 -7.546875 3.5 -7.609375 C 3.476562 -7.617188 3.425781 -7.625 3.34375 -7.625 C 3.269531 -7.625 3.195312 -7.625 3.125 -7.625 L 2.65625 -7.625 C 2.5 -7.625 2.347656 -7.625 2.203125 -7.625 C 2.054688 -7.625 1.9375 -7.613281 1.84375 -7.59375 L 1.328125 -5.828125 L 0.265625 -5.921875 L 0.5625 -8.6875 C 0.65625 -8.6875 0.804688 -8.679688 1.015625 -8.671875 C 1.234375 -8.660156 1.46875 -8.648438 1.71875 -8.640625 C 1.976562 -8.628906 2.222656 -8.617188 2.453125 -8.609375 C 2.691406 -8.597656 2.882812 -8.59375 3.03125 -8.59375 L 6.453125 -8.59375 C 6.609375 -8.59375 6.800781 -8.597656 7.03125 -8.609375 C 7.269531 -8.617188 7.515625 -8.628906 7.765625 -8.640625 C 8.015625 -8.648438 8.242188 -8.660156 8.453125 -8.671875 C 8.671875 -8.679688 8.828125 -8.6875 8.921875 -8.6875 Z M 8.921875 -8.6875 "/></g></g></g><g fill="#d9d9d9" fillOpacity="1"><g transform="translate(236.560537, 271.333957)"><g><path d="M 5.5625 0.125 C 4.550781 0.125 3.671875 -0.0390625 2.921875 -0.375 C 2.179688 -0.71875 1.613281 -1.207031 1.21875 -1.84375 C 0.820312 -2.476562 0.625 -3.234375 0.625 -4.109375 C 0.625 -4.878906 0.765625 -5.550781 1.046875 -6.125 C 1.328125 -6.707031 1.710938 -7.191406 2.203125 -7.578125 C 2.691406 -7.960938 3.253906 -8.25 3.890625 -8.4375 C 4.535156 -8.632812 5.226562 -8.734375 5.96875 -8.734375 C 6.445312 -8.734375 6.910156 -8.679688 7.359375 -8.578125 C 7.816406 -8.472656 8.1875 -8.347656 8.46875 -8.203125 L 8.5625 -5.8125 L 7.515625 -5.75 L 6.921875 -7.390625 C 6.742188 -7.472656 6.566406 -7.53125 6.390625 -7.5625 C 6.210938 -7.601562 6.023438 -7.625 5.828125 -7.625 C 5.378906 -7.625 4.976562 -7.503906 4.625 -7.265625 C 4.28125 -7.035156 4.007812 -6.691406 3.8125 -6.234375 C 3.625 -5.773438 3.53125 -5.207031 3.53125 -4.53125 C 3.53125 -3.820312 3.640625 -3.207031 3.859375 -2.6875 C 4.085938 -2.164062 4.390625 -1.757812 4.765625 -1.46875 C 5.140625 -1.1875 5.554688 -1.046875 6.015625 -1.046875 C 6.296875 -1.046875 6.550781 -1.078125 6.78125 -1.140625 C 7.007812 -1.210938 7.207031 -1.316406 7.375 -1.453125 L 7.859375 -2.828125 L 9.03125 -2.703125 L 8.59375 -0.671875 C 8.289062 -0.453125 7.859375 -0.265625 7.296875 -0.109375 C 6.742188 0.046875 6.164062 0.125 5.5625 0.125 Z M 5.5625 0.125 "/></g></g></g><g fill="#d9d9d9" fillOpacity="1"><g transform="translate(247.406239, 271.333957)"><g><path d="M 5.734375 0 L 5.6875 -0.828125 L 6.59375 -1.109375 C 6.613281 -1.171875 6.628906 -1.320312 6.640625 -1.5625 C 6.660156 -1.8125 6.671875 -2.101562 6.671875 -2.4375 C 6.679688 -2.769531 6.6875 -3.097656 6.6875 -3.421875 L 6.6875 -5.1875 C 6.6875 -5.519531 6.679688 -5.851562 6.671875 -6.1875 C 6.671875 -6.53125 6.660156 -6.820312 6.640625 -7.0625 C 6.628906 -7.3125 6.613281 -7.460938 6.59375 -7.515625 L 5.6875 -7.765625 L 5.734375 -8.59375 L 10.171875 -8.59375 L 10.203125 -7.765625 L 9.265625 -7.515625 C 9.253906 -7.460938 9.238281 -7.300781 9.21875 -7.03125 C 9.195312 -6.757812 9.175781 -6.445312 9.15625 -6.09375 C 9.144531 -5.75 9.140625 -5.445312 9.140625 -5.1875 L 9.140625 -3.421875 C 9.140625 -3.171875 9.144531 -2.875 9.15625 -2.53125 C 9.175781 -2.1875 9.195312 -1.878906 9.21875 -1.609375 C 9.238281 -1.335938 9.253906 -1.171875 9.265625 -1.109375 L 10.203125 -0.828125 L 10.171875 0 Z M 0.484375 0 L 0.4375 -0.828125 L 1.390625 -1.109375 C 1.410156 -1.148438 1.429688 -1.28125 1.453125 -1.5 C 1.472656 -1.726562 1.488281 -2.015625 1.5 -2.359375 C 1.507812 -2.703125 1.515625 -3.054688 1.515625 -3.421875 L 1.515625 -5.1875 C 1.515625 -5.5625 1.507812 -5.921875 1.5 -6.265625 C 1.488281 -6.609375 1.472656 -6.894531 1.453125 -7.125 C 1.429688 -7.351562 1.410156 -7.484375 1.390625 -7.515625 L 0.4375 -7.765625 L 0.484375 -8.59375 L 4.921875 -8.59375 L 4.96875 -7.765625 L 4.0625 -7.515625 C 4.039062 -7.460938 4.019531 -7.3125 4 -7.0625 C 3.988281 -6.820312 3.976562 -6.53125 3.96875 -6.1875 C 3.957031 -5.851562 3.953125 -5.519531 3.953125 -5.1875 L 3.953125 -3.421875 C 3.953125 -3.097656 3.957031 -2.769531 3.96875 -2.4375 C 3.976562 -2.101562 3.988281 -1.8125 4 -1.5625 C 4.019531 -1.320312 4.039062 -1.171875 4.0625 -1.109375 L 4.96875 -0.828125 L 4.921875 0 Z M 3.5 -3.734375 L 3.5 -5.015625 C 3.769531 -4.984375 4.035156 -4.960938 4.296875 -4.953125 C 4.566406 -4.941406 4.90625 -4.9375 5.3125 -4.9375 C 5.726562 -4.9375 6.066406 -4.941406 6.328125 -4.953125 C 6.585938 -4.960938 6.859375 -4.984375 7.140625 -5.015625 L 7.140625 -3.734375 C 6.953125 -3.734375 6.710938 -3.742188 6.421875 -3.765625 C 6.128906 -3.785156 5.757812 -3.796875 5.3125 -3.796875 C 4.875 -3.796875 4.515625 -3.785156 4.234375 -3.765625 C 3.953125 -3.742188 3.707031 -3.734375 3.5 -3.734375 Z M 3.5 -3.734375 "/></g></g></g><g fill="#d9d9d9" fillOpacity="1"><g transform="translate(259.570301, 271.333957)"><g/></g></g><g fill="#d9d9d9" fillOpacity="1"><g transform="translate(263.999988, 271.333957)"><g><path d="M 7.765625 -3.078125 L 7.765625 -4.6875 C 7.765625 -5.09375 7.757812 -5.5 7.75 -5.90625 C 7.75 -6.320312 7.738281 -6.675781 7.71875 -6.96875 C 7.707031 -7.257812 7.6875 -7.429688 7.65625 -7.484375 L 6.625 -7.765625 L 6.671875 -8.59375 L 10 -8.59375 L 10.046875 -7.765625 L 9.09375 -7.484375 C 9.070312 -7.429688 9.050781 -7.257812 9.03125 -6.96875 C 9.019531 -6.6875 9.007812 -6.335938 9 -5.921875 C 9 -5.515625 9 -5.101562 9 -4.6875 L 9 -2.328125 C 9 -1.796875 8.992188 -1.34375 8.984375 -0.96875 C 8.984375 -0.601562 8.984375 -0.25 8.984375 0.09375 L 7.9375 0.09375 L 1.734375 -6.46875 L 2.8125 -6.46875 L 2.8125 -4.1875 C 2.8125 -3.695312 2.8125 -3.226562 2.8125 -2.78125 C 2.820312 -2.34375 2.835938 -1.972656 2.859375 -1.671875 C 2.878906 -1.367188 2.90625 -1.179688 2.9375 -1.109375 L 3.96875 -0.828125 L 3.921875 0 L 0.515625 0 L 0.46875 -0.828125 L 1.421875 -1.109375 C 1.441406 -1.179688 1.457031 -1.378906 1.46875 -1.703125 C 1.488281 -2.023438 1.503906 -2.410156 1.515625 -2.859375 C 1.523438 -3.304688 1.53125 -3.75 1.53125 -4.1875 L 1.53125 -5.765625 C 1.53125 -5.890625 1.519531 -6.070312 1.5 -6.3125 C 1.488281 -6.550781 1.472656 -6.785156 1.453125 -7.015625 C 1.441406 -7.253906 1.429688 -7.410156 1.421875 -7.484375 L 0.46875 -7.765625 L 0.515625 -8.59375 L 3.03125 -8.59375 L 8.5625 -3.078125 Z M 7.765625 -3.078125 "/></g></g></g><g fill="#d9d9d9" fillOpacity="1"><g transform="translate(276.032214, 271.333957)"><g><path d="M 7.96875 0.109375 C 7.664062 0.0859375 7.273438 0.0625 6.796875 0.03125 C 6.328125 0.0078125 5.90625 0 5.53125 0 L 0.484375 0 L 0.4375 -0.828125 L 1.390625 -1.109375 C 1.410156 -1.148438 1.429688 -1.28125 1.453125 -1.5 C 1.472656 -1.726562 1.488281 -2.015625 1.5 -2.359375 C 1.507812 -2.703125 1.515625 -3.054688 1.515625 -3.421875 L 1.515625 -5.1875 C 1.515625 -5.5625 1.507812 -5.921875 1.5 -6.265625 C 1.488281 -6.609375 1.472656 -6.890625 1.453125 -7.109375 C 1.429688 -7.328125 1.410156 -7.453125 1.390625 -7.484375 L 0.4375 -7.765625 L 0.484375 -8.59375 L 4.84375 -8.59375 C 5.09375 -8.59375 5.390625 -8.59375 5.734375 -8.59375 C 6.078125 -8.601562 6.414062 -8.613281 6.75 -8.625 C 7.082031 -8.644531 7.351562 -8.664062 7.5625 -8.6875 L 8.015625 -6.359375 L 7.046875 -6.21875 L 6.453125 -7.578125 C 6.296875 -7.609375 6.164062 -7.625 6.0625 -7.625 C 5.957031 -7.632812 5.847656 -7.640625 5.734375 -7.640625 L 4.96875 -7.640625 C 4.78125 -7.640625 4.585938 -7.632812 4.390625 -7.625 C 4.203125 -7.625 4.066406 -7.617188 3.984375 -7.609375 C 3.972656 -7.503906 3.960938 -7.378906 3.953125 -7.234375 C 3.953125 -7.085938 3.945312 -6.890625 3.9375 -6.640625 C 3.9375 -6.398438 3.9375 -6.09375 3.9375 -5.71875 L 3.9375 -3.171875 C 3.9375 -2.785156 3.9375 -2.457031 3.9375 -2.1875 C 3.945312 -1.914062 3.953125 -1.695312 3.953125 -1.53125 C 3.960938 -1.363281 3.972656 -1.222656 3.984375 -1.109375 C 4.179688 -1.078125 4.390625 -1.054688 4.609375 -1.046875 C 4.828125 -1.046875 5.117188 -1.046875 5.484375 -1.046875 L 5.859375 -1.046875 C 6.128906 -1.046875 6.320312 -1.046875 6.4375 -1.046875 C 6.550781 -1.046875 6.632812 -1.046875 6.6875 -1.046875 C 6.738281 -1.054688 6.8125 -1.070312 6.90625 -1.09375 L 7.734375 -2.609375 L 8.671875 -2.4375 Z M 5.96875 -2.875 L 5.828125 -3.859375 C 5.765625 -3.859375 5.644531 -3.859375 5.46875 -3.859375 C 5.300781 -3.867188 5.113281 -3.875 4.90625 -3.875 L 4.34375 -3.875 C 4.144531 -3.875 3.972656 -3.867188 3.828125 -3.859375 C 3.679688 -3.847656 3.59375 -3.835938 3.5625 -3.828125 L 3.5625 -5.015625 C 3.59375 -5.003906 3.679688 -4.988281 3.828125 -4.96875 C 3.972656 -4.957031 4.144531 -4.953125 4.34375 -4.953125 L 4.90625 -4.953125 C 5.113281 -4.953125 5.300781 -4.953125 5.46875 -4.953125 C 5.644531 -4.960938 5.765625 -4.96875 5.828125 -4.96875 L 5.96875 -5.921875 L 6.90625 -5.921875 L 6.90625 -2.875 Z M 5.96875 -2.875 "/></g></g></g><g fill="#d9d9d9" fillOpacity="1"><g transform="translate(286.335924, 271.333957)"><g><path d="M 9.140625 0 L 4.71875 0 L 4.671875 -0.828125 L 5.578125 -1.09375 L 4.203125 -3.171875 L 3.5 -4.125 L 1.21875 -7.484375 L 0.46875 -7.765625 L 0.515625 -8.59375 L 4.578125 -8.59375 L 4.625 -7.765625 L 4.03125 -7.484375 L 5.09375 -5.9375 L 5.75 -5 L 8.4375 -1.09375 L 9.1875 -0.828125 Z M 6.15625 -7.484375 L 5.546875 -7.765625 L 5.59375 -8.59375 L 8.5 -8.59375 L 8.546875 -7.765625 L 7.796875 -7.484375 L 5.75 -5 L 4.203125 -3.171875 L 2.78125 -1.09375 L 3.734375 -0.828125 L 3.6875 0 L 0.453125 0 L 0.40625 -0.828125 L 1.15625 -1.09375 L 3.5 -4.125 L 5.09375 -5.9375 Z M 6.15625 -7.484375 "/></g></g></g><g fill="#d9d9d9" fillOpacity="1"><g transform="translate(297.035142, 271.333957)"><g><path d="M 8.921875 -8.6875 L 9.265625 -5.9375 L 8.203125 -5.859375 L 7.625 -7.59375 C 7.539062 -7.613281 7.4375 -7.625 7.3125 -7.625 C 7.195312 -7.625 7.054688 -7.625 6.890625 -7.625 L 6.4375 -7.625 C 6.351562 -7.625 6.269531 -7.625 6.1875 -7.625 C 6.113281 -7.625 6.066406 -7.617188 6.046875 -7.609375 C 6.046875 -7.546875 6.039062 -7.359375 6.03125 -7.046875 C 6.019531 -6.734375 6.007812 -6.351562 6 -5.90625 C 6 -5.46875 6 -5.007812 6 -4.53125 L 6 -3.546875 C 6 -3.046875 6.003906 -2.582031 6.015625 -2.15625 C 6.035156 -1.726562 6.050781 -1.378906 6.0625 -1.109375 L 7.375 -0.859375 L 7.328125 0 L 2.234375 0 L 2.1875 -0.859375 L 3.484375 -1.109375 C 3.503906 -1.378906 3.519531 -1.726562 3.53125 -2.15625 C 3.539062 -2.582031 3.546875 -3.046875 3.546875 -3.546875 L 3.546875 -4.53125 C 3.546875 -5.007812 3.539062 -5.46875 3.53125 -5.90625 C 3.53125 -6.351562 3.523438 -6.734375 3.515625 -7.046875 C 3.515625 -7.359375 3.507812 -7.546875 3.5 -7.609375 C 3.476562 -7.617188 3.425781 -7.625 3.34375 -7.625 C 3.269531 -7.625 3.195312 -7.625 3.125 -7.625 L 2.65625 -7.625 C 2.5 -7.625 2.347656 -7.625 2.203125 -7.625 C 2.054688 -7.625 1.9375 -7.613281 1.84375 -7.59375 L 1.328125 -5.828125 L 0.265625 -5.921875 L 0.5625 -8.6875 C 0.65625 -8.6875 0.804688 -8.679688 1.015625 -8.671875 C 1.234375 -8.660156 1.46875 -8.648438 1.71875 -8.640625 C 1.976562 -8.628906 2.222656 -8.617188 2.453125 -8.609375 C 2.691406 -8.597656 2.882812 -8.59375 3.03125 -8.59375 L 6.453125 -8.59375 C 6.609375 -8.59375 6.800781 -8.597656 7.03125 -8.609375 C 7.269531 -8.617188 7.515625 -8.628906 7.765625 -8.640625 C 8.015625 -8.648438 8.242188 -8.660156 8.453125 -8.671875 C 8.671875 -8.679688 8.828125 -8.6875 8.921875 -8.6875 Z M 8.921875 -8.6875 "/></g></g></g><g fill="#d9d9d9" fillOpacity="1"><g transform="translate(308.100571, 271.333957)"><g/></g></g><g fill="#d9d9d9" fillOpacity="1"><g transform="translate(312.530258, 271.333957)"><g><path d="M 1.53125 -3.703125 C 1.4375 -3.972656 1.363281 -4.21875 1.3125 -4.4375 C 1.269531 -4.65625 1.25 -4.867188 1.25 -5.078125 C 1.25 -5.398438 1.328125 -5.671875 1.484375 -5.890625 C 1.648438 -6.109375 1.851562 -6.296875 2.09375 -6.453125 C 2.332031 -6.609375 2.570312 -6.75 2.8125 -6.875 C 3.050781 -7 3.25 -7.125 3.40625 -7.25 C 3.570312 -7.382812 3.65625 -7.546875 3.65625 -7.734375 C 3.65625 -7.847656 3.601562 -7.945312 3.5 -8.03125 C 3.40625 -8.125 3.25 -8.171875 3.03125 -8.171875 C 2.78125 -8.171875 2.53125 -8.128906 2.28125 -8.046875 C 2.03125 -7.960938 1.757812 -7.921875 1.46875 -7.921875 C 1.050781 -7.921875 0.703125 -8.03125 0.421875 -8.25 C 0.148438 -8.46875 0.015625 -8.753906 0.015625 -9.109375 C 0.015625 -9.453125 0.144531 -9.722656 0.40625 -9.921875 C 0.675781 -10.117188 1.019531 -10.21875 1.4375 -10.21875 C 1.9375 -10.21875 2.414062 -10.128906 2.875 -9.953125 C 3.332031 -9.773438 3.742188 -9.53125 4.109375 -9.21875 C 4.484375 -8.90625 4.773438 -8.546875 4.984375 -8.140625 C 5.203125 -7.742188 5.3125 -7.328125 5.3125 -6.890625 C 5.3125 -6.441406 5.21875 -6.09375 5.03125 -5.84375 C 4.851562 -5.59375 4.625 -5.394531 4.34375 -5.25 C 4.070312 -5.113281 3.796875 -5 3.515625 -4.90625 C 3.242188 -4.8125 3.015625 -4.703125 2.828125 -4.578125 C 2.640625 -4.460938 2.546875 -4.304688 2.546875 -4.109375 C 2.546875 -4.085938 2.546875 -4.039062 2.546875 -3.96875 C 2.554688 -3.90625 2.566406 -3.816406 2.578125 -3.703125 Z M 2.03125 0.140625 C 1.726562 0.140625 1.453125 0.0664062 1.203125 -0.078125 C 0.953125 -0.222656 0.75 -0.414062 0.59375 -0.65625 C 0.445312 -0.90625 0.375 -1.175781 0.375 -1.46875 C 0.375 -1.78125 0.445312 -2.0625 0.59375 -2.3125 C 0.75 -2.5625 0.953125 -2.757812 1.203125 -2.90625 C 1.460938 -3.0625 1.738281 -3.140625 2.03125 -3.140625 C 2.488281 -3.140625 2.878906 -2.972656 3.203125 -2.640625 C 3.535156 -2.316406 3.703125 -1.925781 3.703125 -1.46875 C 3.703125 -1.019531 3.535156 -0.640625 3.203125 -0.328125 C 2.878906 -0.015625 2.488281 0.140625 2.03125 0.140625 Z M 2.03125 0.140625 "/></g></g></g></svg>