<svg xmlns="http://www.w3.org/2000/svg" xmlns:xlink="http://www.w3.org/1999/xlink" width="120" zoomAndPan="magnify" viewBox="0 0 90 89.999999" height="120" preserveAspectRatio="xMidYMid meet" version="1.0"><defs><clipPath id="21481f52ea"><path d="M 4.5 4.5 L 85.5 4.5 L 85.5 85.5 L 4.5 85.5 Z M 4.5 4.5 " clip-rule="nonzero"/></clipPath></defs><rect x="-9" width="108" fill="#ffffff" y="-9" height="107.999999" fill-opacity="1"/><rect x="-9" width="108" fill="#ffffff" y="-9" height="107.999999" fill-opacity="1"/><rect x="-9" width="108" fill="#00bf63" y="-9" height="107.999999" fill-opacity="1"/><g clip-path="url(#21481f52ea)"><path fill="#fdfdfc" d="M 56.785156 57.515625 L 33.214844 57.515625 C 32.304688 57.515625 31.453125 57.910156 30.875 58.597656 C 30.316406 59.257812 30.078125 60.125 30.222656 60.953125 L 33.347656 81.378906 C 33.761719 83.765625 35.867188 85.5 38.355469 85.5 L 51.644531 85.5 C 54.132812 85.5 56.238281 83.765625 56.652344 81.359375 L 59.773438 60.972656 C 59.921875 60.125 59.683594 59.257812 59.125 58.597656 C 58.546875 57.910156 57.695312 57.515625 56.785156 57.515625 Z M 38.355469 83.523438 C 36.832031 83.523438 35.542969 82.480469 35.296875 81.0625 L 32.171875 60.636719 C 32.109375 60.265625 32.277344 59.996094 32.386719 59.867188 C 32.585938 59.628906 32.890625 59.492188 33.214844 59.492188 L 39.40625 59.492188 L 40.667969 83.523438 Z M 47.355469 83.523438 L 42.644531 83.523438 L 41.429688 59.492188 L 48.570312 59.492188 Z M 54.703125 81.042969 C 54.457031 82.480469 53.167969 83.523438 51.644531 83.523438 L 49.332031 83.523438 L 50.59375 59.492188 L 56.785156 59.492188 C 57.109375 59.492188 57.414062 59.628906 57.613281 59.867188 C 57.722656 59.996094 57.890625 60.265625 57.824219 60.65625 Z M 59.816406 54.878906 C 59.816406 55.425781 59.375 55.867188 58.828125 55.867188 L 56.855469 55.867188 C 56.308594 55.867188 55.867188 55.425781 55.867188 54.878906 C 55.867188 53.289062 54.425781 52.054688 53.0625 52.800781 C 52.691406 53.003906 52.234375 52.945312 51.921875 52.660156 C 51.609375 52.375 51.515625 51.921875 51.6875 51.53125 C 51.835938 51.191406 51.914062 50.839844 51.914062 50.488281 C 51.914062 48.886719 50.453125 47.644531 49.078125 48.429688 C 48.832031 48.574219 48.535156 48.601562 48.265625 48.507812 C 48 48.414062 47.78125 48.210938 47.675781 47.949219 C 47.183594 46.757812 46.136719 45.988281 45 45.988281 C 43.867188 45.988281 42.816406 46.757812 42.324219 47.949219 C 42.21875 48.210938 42 48.414062 41.734375 48.507812 C 41.464844 48.601562 41.167969 48.574219 40.921875 48.429688 C 39.546875 47.648438 38.085938 48.886719 38.085938 50.488281 C 38.085938 50.839844 38.164062 51.191406 38.3125 51.53125 C 38.484375 51.921875 38.390625 52.375 38.078125 52.660156 C 37.765625 52.949219 37.308594 53.003906 36.933594 52.800781 C 35.585938 52.058594 34.132812 53.289062 34.132812 54.878906 C 34.132812 55.425781 33.691406 55.867188 33.144531 55.867188 L 31.171875 55.867188 C 30.625 55.867188 30.183594 55.425781 30.183594 54.878906 C 30.183594 54.332031 30.625 53.890625 31.171875 53.890625 L 32.265625 53.890625 C 32.675781 52.003906 34.246094 50.597656 36.109375 50.597656 C 36.109375 50.5625 36.109375 50.523438 36.109375 50.488281 C 36.109375 48.128906 37.882812 46.207031 40.0625 46.207031 C 40.363281 46.207031 40.660156 46.246094 40.953125 46.324219 C 41.863281 44.894531 43.371094 44.011719 45 44.011719 C 46.628906 44.011719 48.136719 44.894531 49.046875 46.324219 C 49.339844 46.246094 49.636719 46.207031 49.9375 46.207031 C 52.117188 46.207031 53.890625 48.128906 53.890625 50.488281 C 53.890625 50.523438 53.890625 50.5625 53.890625 50.597656 C 55.753906 50.597656 57.324219 52.003906 57.734375 53.890625 L 58.828125 53.890625 C 59.375 53.890625 59.816406 54.332031 59.816406 54.878906 Z M 40.0625 54.878906 C 40.0625 54.332031 40.503906 53.890625 41.046875 53.890625 L 43.023438 53.890625 C 43.570312 53.890625 44.011719 54.332031 44.011719 54.878906 C 44.011719 55.425781 43.570312 55.867188 43.023438 55.867188 L 41.046875 55.867188 C 40.503906 55.867188 40.0625 55.425781 40.0625 54.878906 Z M 45 51.914062 C 44.453125 51.914062 44.011719 51.472656 44.011719 50.925781 C 44.011719 50.378906 44.453125 49.9375 45 49.9375 L 46.976562 49.9375 C 47.523438 49.9375 47.964844 50.378906 47.964844 50.925781 C 47.964844 51.472656 47.523438 51.914062 46.976562 51.914062 Z M 40.046875 38.085938 C 40.488281 38.085938 40.929688 37.96875 41.328125 37.730469 L 55.1875 29.429688 C 55.964844 28.964844 56.429688 28.136719 56.429688 27.21875 C 56.429688 26.300781 55.964844 25.476562 55.1875 25.007812 L 41.328125 16.710938 C 40.542969 16.242188 39.605469 16.230469 38.816406 16.679688 C 38.003906 17.140625 37.519531 17.976562 37.519531 18.921875 L 37.519531 35.519531 C 37.519531 36.460938 38.003906 37.300781 38.816406 37.757812 C 39.203125 37.976562 39.625 38.085938 40.046875 38.085938 Z M 39.496094 18.921875 C 39.496094 18.601562 39.703125 18.449219 39.789062 18.398438 C 39.847656 18.367188 39.9375 18.328125 40.046875 18.328125 C 40.128906 18.328125 40.21875 18.351562 40.3125 18.40625 L 54.171875 26.703125 C 54.425781 26.855469 54.457031 27.117188 54.457031 27.21875 C 54.457031 27.324219 54.425781 27.582031 54.171875 27.734375 L 40.3125 36.03125 C 40.085938 36.167969 39.890625 36.097656 39.789062 36.039062 C 39.703125 35.988281 39.496094 35.839844 39.496094 35.515625 Z M 85.5 13.390625 L 85.5 52.902344 C 85.5 57.804688 81.511719 61.792969 76.609375 61.792969 L 62.648438 61.792969 L 62.695312 61.476562 C 62.792969 60.917969 62.777344 60.363281 62.707031 59.816406 L 76.609375 59.816406 C 80.421875 59.816406 83.523438 56.714844 83.523438 52.902344 L 83.523438 49.9375 L 58.921875 49.9375 C 58.242188 49.179688 57.421875 48.5625 56.488281 48.164062 C 56.464844 48.09375 56.433594 48.03125 56.40625 47.964844 L 83.523438 47.964844 L 83.523438 13.390625 C 83.523438 9.578125 80.421875 6.476562 76.609375 6.476562 L 13.390625 6.476562 C 9.578125 6.476562 6.476562 9.578125 6.476562 13.390625 L 6.476562 47.964844 L 33.59375 47.964844 C 33.566406 48.03125 33.535156 48.09375 33.511719 48.164062 C 32.578125 48.5625 31.757812 49.179688 31.078125 49.9375 L 6.476562 49.9375 L 6.476562 52.902344 C 6.476562 56.714844 9.578125 59.816406 13.390625 59.816406 L 27.285156 59.816406 C 27.21875 60.34375 27.203125 60.878906 27.292969 61.402344 L 27.351562 61.792969 L 13.390625 61.792969 C 8.488281 61.792969 4.5 57.804688 4.5 52.902344 L 4.5 13.390625 C 4.5 8.488281 8.488281 4.5 13.390625 4.5 L 76.609375 4.5 C 81.511719 4.5 85.5 8.488281 85.5 13.390625 Z M 85.5 13.390625 " fill-opacity="1" fill-rule="nonzero"/></g></svg>