<svg xmlns="http://www.w3.org/2000/svg" xmlns:xlink="http://www.w3.org/1999/xlink" width="40" zoomAndPan="magnify" viewBox="0 0 30 30.000001" height="40" preserveAspectRatio="xMidYMid meet" version="1.0"><defs><clipPath id="a3e3a948c6"><path d="M 1.933594 1.453125 L 28.066406 1.453125 L 28.066406 27.582031 L 1.933594 27.582031 Z M 1.933594 1.453125 " clipRule="nonzero"/></clipPath></defs><g clipPath="url(#a3e3a948c6)"><path fill="#00bf63" d="M 18.800781 18.554688 L 11.199219 18.554688 C 10.90625 18.554688 10.628906 18.679688 10.441406 18.902344 C 10.261719 19.117188 10.1875 19.394531 10.234375 19.664062 L 11.242188 26.25 C 11.375 27.019531 12.054688 27.582031 12.855469 27.582031 L 17.144531 27.582031 C 17.945312 27.582031 18.625 27.019531 18.757812 26.246094 L 19.765625 19.667969 C 19.8125 19.394531 19.738281 19.117188 19.554688 18.902344 C 19.371094 18.679688 19.09375 18.554688 18.800781 18.554688 Z M 12.855469 26.941406 C 12.363281 26.941406 11.949219 26.605469 11.871094 26.148438 L 10.863281 19.558594 C 10.839844 19.441406 10.894531 19.355469 10.929688 19.3125 C 10.996094 19.234375 11.09375 19.191406 11.199219 19.191406 L 13.195312 19.191406 L 13.601562 26.941406 Z M 15.757812 26.941406 L 14.242188 26.941406 L 13.847656 19.191406 L 16.152344 19.191406 Z M 18.128906 26.144531 C 18.050781 26.605469 17.636719 26.941406 17.144531 26.941406 L 16.398438 26.941406 L 16.804688 19.191406 L 18.800781 19.191406 C 18.90625 19.191406 19.003906 19.234375 19.070312 19.3125 C 19.105469 19.355469 19.160156 19.441406 19.136719 19.566406 Z M 19.78125 17.703125 C 19.78125 17.878906 19.636719 18.019531 19.460938 18.019531 L 18.824219 18.019531 C 18.648438 18.019531 18.503906 17.878906 18.503906 17.703125 C 18.503906 17.191406 18.039062 16.792969 17.601562 17.03125 C 17.480469 17.097656 17.332031 17.078125 17.234375 16.988281 C 17.132812 16.894531 17.101562 16.75 17.15625 16.625 C 17.207031 16.511719 17.230469 16.398438 17.230469 16.285156 C 17.230469 15.769531 16.757812 15.367188 16.316406 15.621094 C 16.238281 15.667969 16.140625 15.675781 16.054688 15.648438 C 15.96875 15.617188 15.898438 15.550781 15.863281 15.46875 C 15.703125 15.082031 15.367188 14.835938 15 14.835938 C 14.632812 14.835938 14.296875 15.082031 14.136719 15.46875 C 14.101562 15.550781 14.03125 15.617188 13.945312 15.648438 C 13.859375 15.675781 13.761719 15.667969 13.683594 15.621094 C 13.242188 15.371094 12.769531 15.769531 12.769531 16.285156 C 12.769531 16.398438 12.792969 16.511719 12.84375 16.625 C 12.898438 16.75 12.867188 16.894531 12.765625 16.988281 C 12.667969 17.078125 12.519531 17.097656 12.398438 17.03125 C 11.964844 16.792969 11.496094 17.191406 11.496094 17.703125 C 11.496094 17.878906 11.351562 18.019531 11.175781 18.019531 L 10.539062 18.019531 C 10.363281 18.019531 10.21875 17.878906 10.21875 17.703125 C 10.21875 17.527344 10.363281 17.382812 10.539062 17.382812 L 10.890625 17.382812 C 11.023438 16.777344 11.53125 16.320312 12.132812 16.320312 C 12.132812 16.308594 12.132812 16.296875 12.132812 16.285156 C 12.132812 15.523438 12.703125 14.90625 13.40625 14.90625 C 13.503906 14.90625 13.601562 14.917969 13.695312 14.941406 C 13.988281 14.480469 14.476562 14.199219 15 14.199219 C 15.523438 14.199219 16.011719 14.480469 16.304688 14.941406 C 16.398438 14.917969 16.496094 14.90625 16.59375 14.90625 C 17.296875 14.90625 17.867188 15.523438 17.867188 16.285156 C 17.867188 16.296875 17.867188 16.308594 17.867188 16.320312 C 18.46875 16.320312 18.976562 16.777344 19.109375 17.382812 L 19.460938 17.382812 C 19.636719 17.382812 19.78125 17.527344 19.78125 17.703125 Z M 13.40625 17.703125 C 13.40625 17.527344 13.550781 17.382812 13.726562 17.382812 L 14.363281 17.382812 C 14.539062 17.382812 14.679688 17.527344 14.679688 17.703125 C 14.679688 17.878906 14.539062 18.019531 14.363281 18.019531 L 13.726562 18.019531 C 13.550781 18.019531 13.40625 17.878906 13.40625 17.703125 Z M 15 16.746094 C 14.824219 16.746094 14.679688 16.605469 14.679688 16.429688 C 14.679688 16.25 14.824219 16.109375 15 16.109375 L 15.636719 16.109375 C 15.8125 16.109375 15.957031 16.25 15.957031 16.429688 C 15.957031 16.605469 15.8125 16.746094 15.636719 16.746094 Z M 13.402344 12.285156 C 13.542969 12.285156 13.6875 12.246094 13.816406 12.171875 L 18.285156 9.492188 C 18.539062 9.34375 18.6875 9.078125 18.6875 8.78125 C 18.6875 8.484375 18.539062 8.21875 18.285156 8.066406 L 13.816406 5.390625 C 13.5625 5.238281 13.261719 5.234375 13.003906 5.382812 C 12.742188 5.527344 12.585938 5.800781 12.585938 6.105469 L 12.585938 11.457031 C 12.585938 11.761719 12.742188 12.03125 13.003906 12.179688 C 13.128906 12.25 13.265625 12.285156 13.402344 12.285156 Z M 13.226562 6.105469 C 13.226562 6 13.292969 5.953125 13.320312 5.933594 C 13.339844 5.925781 13.367188 5.914062 13.402344 5.914062 C 13.429688 5.914062 13.457031 5.917969 13.488281 5.9375 L 17.960938 8.613281 C 18.042969 8.664062 18.050781 8.746094 18.050781 8.78125 C 18.050781 8.8125 18.042969 8.898438 17.960938 8.945312 L 13.488281 11.625 C 13.414062 11.667969 13.351562 11.644531 13.320312 11.625 C 13.292969 11.609375 13.226562 11.5625 13.226562 11.457031 Z M 28.066406 4.320312 L 28.066406 17.066406 C 28.066406 18.648438 26.777344 19.933594 25.195312 19.933594 L 20.691406 19.933594 L 20.707031 19.832031 C 20.738281 19.652344 20.734375 19.472656 20.710938 19.296875 L 25.195312 19.296875 C 26.425781 19.296875 27.425781 18.296875 27.425781 17.066406 L 27.425781 16.109375 L 19.492188 16.109375 C 19.273438 15.863281 19.007812 15.664062 18.707031 15.539062 C 18.699219 15.515625 18.6875 15.496094 18.679688 15.472656 L 27.425781 15.472656 L 27.425781 4.320312 C 27.425781 3.089844 26.425781 2.089844 25.195312 2.089844 L 4.804688 2.089844 C 3.574219 2.089844 2.574219 3.089844 2.574219 4.320312 L 2.574219 15.472656 L 11.320312 15.472656 C 11.3125 15.496094 11.300781 15.515625 11.292969 15.539062 C 10.992188 15.664062 10.726562 15.863281 10.507812 16.109375 L 2.574219 16.109375 L 2.574219 17.066406 C 2.574219 18.296875 3.574219 19.296875 4.804688 19.296875 L 9.285156 19.296875 C 9.265625 19.464844 9.257812 19.636719 9.289062 19.808594 L 9.308594 19.933594 L 4.804688 19.933594 C 3.222656 19.933594 1.933594 18.648438 1.933594 17.066406 L 1.933594 4.320312 C 1.933594 2.738281 3.222656 1.453125 4.804688 1.453125 L 25.195312 1.453125 C 26.777344 1.453125 28.066406 2.738281 28.066406 4.320312 Z M 28.066406 4.320312 " fillOpacity="1" fillRule="nonzero"/></g></svg>