<svg xmlns="http://www.w3.org/2000/svg" width="40" zoomAndPan="magnify" viewBox="0 0 30 30.000001" height="40" preserveAspectRatio="xMidYMid meet" version="1.0"><defs><clipPath id="05743cfbed"><path d="M 0.484375 0 L 29.515625 0 L 29.515625 29.03125 L 0.484375 29.03125 Z M 0.484375 0 " clipRule="nonzero"/></clipPath></defs><g clipPath="url(#05743cfbed)"><path fill="#ffffff" d="M 0.484375 0 L 29.515625 0 L 29.515625 36.289062 L 0.484375 36.289062 Z M 0.484375 0 " fillOpacity="1" fillRule="nonzero"/><path fill="#ffffff" d="M 0.484375 0 L 29.515625 0 L 29.515625 29.03125 L 0.484375 29.03125 Z M 0.484375 0 " fillOpacity="1" fillRule="nonzero"/><path fill="#00bf63" d="M 19.222656 19.003906 L 10.777344 19.003906 C 10.449219 19.003906 10.144531 19.144531 9.9375 19.390625 C 9.738281 19.628906 9.652344 19.9375 9.703125 20.234375 L 10.824219 27.554688 C 10.972656 28.410156 11.726562 29.03125 12.617188 29.03125 L 17.382812 29.03125 C 18.273438 29.03125 19.027344 28.410156 19.175781 27.546875 L 20.296875 20.242188 C 20.347656 19.9375 20.261719 19.628906 20.0625 19.390625 C 19.855469 19.144531 19.550781 19.003906 19.222656 19.003906 Z M 12.617188 28.324219 C 12.070312 28.324219 11.609375 27.949219 11.523438 27.441406 L 10.402344 20.121094 C 10.378906 19.988281 10.441406 19.890625 10.480469 19.84375 C 10.550781 19.761719 10.660156 19.710938 10.777344 19.710938 L 12.996094 19.710938 L 13.445312 28.324219 Z M 15.84375 28.324219 L 14.15625 28.324219 L 13.71875 19.710938 L 16.28125 19.710938 Z M 18.476562 27.433594 C 18.390625 27.949219 17.929688 28.324219 17.382812 28.324219 L 16.554688 28.324219 L 17.003906 19.710938 L 19.222656 19.710938 C 19.339844 19.710938 19.449219 19.761719 19.519531 19.84375 C 19.558594 19.890625 19.621094 19.988281 19.597656 20.128906 Z M 20.3125 18.058594 C 20.3125 18.253906 20.152344 18.410156 19.957031 18.410156 L 19.25 18.410156 C 19.054688 18.410156 18.894531 18.253906 18.894531 18.058594 C 18.894531 17.488281 18.378906 17.042969 17.890625 17.3125 C 17.757812 17.382812 17.59375 17.363281 17.480469 17.261719 C 17.367188 17.160156 17.335938 16.996094 17.398438 16.859375 C 17.449219 16.734375 17.476562 16.609375 17.476562 16.484375 C 17.476562 15.910156 16.953125 15.464844 16.460938 15.746094 C 16.375 15.796875 16.265625 15.804688 16.171875 15.773438 C 16.074219 15.738281 15.996094 15.667969 15.957031 15.574219 C 15.78125 15.144531 15.40625 14.871094 15 14.871094 C 14.59375 14.871094 14.21875 15.144531 14.042969 15.574219 C 14.003906 15.667969 13.925781 15.738281 13.828125 15.773438 C 13.734375 15.804688 13.625 15.796875 13.539062 15.746094 C 13.046875 15.464844 12.523438 15.910156 12.523438 16.484375 C 12.523438 16.609375 12.550781 16.734375 12.601562 16.859375 C 12.664062 16.996094 12.632812 17.160156 12.519531 17.261719 C 12.40625 17.363281 12.242188 17.382812 12.109375 17.3125 C 11.625 17.046875 11.105469 17.488281 11.105469 18.058594 C 11.105469 18.253906 10.945312 18.410156 10.75 18.410156 L 10.042969 18.410156 C 9.847656 18.410156 9.6875 18.253906 9.6875 18.058594 C 9.6875 17.859375 9.847656 17.703125 10.042969 17.703125 L 10.433594 17.703125 C 10.582031 17.027344 11.144531 16.523438 11.8125 16.523438 C 11.8125 16.507812 11.8125 16.496094 11.8125 16.484375 C 11.8125 15.636719 12.449219 14.949219 13.230469 14.949219 C 13.335938 14.949219 13.445312 14.960938 13.550781 14.988281 C 13.875 14.476562 14.417969 14.160156 15 14.160156 C 15.582031 14.160156 16.125 14.476562 16.449219 14.988281 C 16.554688 14.960938 16.664062 14.949219 16.769531 14.949219 C 17.550781 14.949219 18.1875 15.636719 18.1875 16.484375 C 18.1875 16.496094 18.1875 16.507812 18.1875 16.523438 C 18.855469 16.523438 19.417969 17.027344 19.566406 17.703125 L 19.957031 17.703125 C 20.152344 17.703125 20.3125 17.859375 20.3125 18.058594 Z M 13.230469 18.058594 C 13.230469 17.859375 13.386719 17.703125 13.582031 17.703125 L 14.292969 17.703125 C 14.488281 17.703125 14.644531 17.859375 14.644531 18.058594 C 14.644531 18.253906 14.488281 18.410156 14.292969 18.410156 L 13.582031 18.410156 C 13.386719 18.410156 13.230469 18.253906 13.230469 18.058594 Z M 15 16.996094 C 14.804688 16.996094 14.644531 16.835938 14.644531 16.640625 C 14.644531 16.445312 14.804688 16.285156 15 16.285156 L 15.707031 16.285156 C 15.902344 16.285156 16.0625 16.445312 16.0625 16.640625 C 16.0625 16.835938 15.902344 16.996094 15.707031 16.996094 Z M 13.222656 12.039062 C 13.382812 12.039062 13.539062 11.996094 13.683594 11.910156 L 18.652344 8.9375 C 18.929688 8.769531 19.097656 8.472656 19.097656 8.144531 C 19.097656 7.8125 18.929688 7.519531 18.652344 7.351562 L 13.683594 4.375 C 13.402344 4.210938 13.066406 4.203125 12.785156 4.367188 C 12.492188 4.53125 12.320312 4.832031 12.320312 5.167969 L 12.320312 11.117188 C 12.320312 11.457031 12.492188 11.757812 12.785156 11.921875 C 12.921875 12 13.074219 12.039062 13.222656 12.039062 Z M 13.027344 5.167969 C 13.027344 5.054688 13.101562 5 13.132812 4.980469 C 13.152344 4.96875 13.183594 4.957031 13.226562 4.957031 C 13.253906 4.957031 13.285156 4.964844 13.320312 4.984375 L 18.289062 7.957031 C 18.378906 8.011719 18.390625 8.105469 18.390625 8.144531 C 18.390625 8.179688 18.378906 8.273438 18.289062 8.328125 L 13.320312 11.300781 C 13.238281 11.351562 13.167969 11.324219 13.132812 11.304688 C 13.101562 11.285156 13.027344 11.234375 13.027344 11.117188 Z M 29.515625 3.1875 L 29.515625 17.347656 C 29.515625 19.105469 28.085938 20.535156 26.328125 20.535156 L 21.324219 20.535156 L 21.34375 20.421875 C 21.375 20.222656 21.371094 20.023438 21.347656 19.828125 L 26.328125 19.828125 C 27.695312 19.828125 28.808594 18.714844 28.808594 17.347656 L 28.808594 16.285156 L 19.988281 16.285156 C 19.746094 16.015625 19.453125 15.792969 19.117188 15.652344 C 19.109375 15.625 19.097656 15.601562 19.089844 15.578125 L 28.808594 15.578125 L 28.808594 3.1875 C 28.808594 1.820312 27.695312 0.707031 26.328125 0.707031 L 3.671875 0.707031 C 2.304688 0.707031 1.191406 1.820312 1.191406 3.1875 L 1.191406 15.578125 L 10.910156 15.578125 C 10.902344 15.601562 10.890625 15.625 10.882812 15.652344 C 10.546875 15.792969 10.253906 16.015625 10.011719 16.285156 L 1.191406 16.285156 L 1.191406 17.347656 C 1.191406 18.714844 2.304688 19.828125 3.671875 19.828125 L 8.648438 19.828125 C 8.625 20.015625 8.621094 20.207031 8.652344 20.394531 L 8.675781 20.535156 L 3.671875 20.535156 C 1.914062 20.535156 0.484375 19.105469 0.484375 17.347656 L 0.484375 3.1875 C 0.484375 1.429688 1.914062 0 3.671875 0 L 26.328125 0 C 28.085938 0 29.515625 1.429688 29.515625 3.1875 Z M 29.515625 3.1875 " fillOpacity="1" fillRule="nonzero"/></g></svg>